<svg width="13" height="16" viewBox="0 0 13 16" fill="none" xmlns="http://www.w3.org/2000/svg">
<path id="Polygon 1" d="M10.2 5.22872C11.7752 6.13815 12.5628 6.59287 12.8271 7.18653C13.0576 7.70434 13.0576 8.29566 12.8271 8.81347C12.5628 9.40713 11.7752 9.86185 10.2 10.7713L4.8 13.889C3.22482 14.7984 2.43722 15.2531 1.79094 15.1852C1.22723 15.1259 0.715132 14.8303 0.381965 14.3717C-6.9265e-07 13.846 -6.52898e-07 12.9366 -5.73393e-07 11.1177L-3.00835e-07 4.88231C-2.2133e-07 3.06344 -1.81577e-07 2.15401 0.381965 1.62828C0.715133 1.16971 1.22723 0.874051 1.79094 0.814803C2.43722 0.746876 3.22482 1.20159 4.8 2.11103L10.2 5.22872Z" fill="white"/>
</svg>
